<?xml version="1.0" encoding="UTF-8" standalone="no"?>
<!DOCTYPE svg PUBLIC "-//W3C//DTD SVG 1.1//EN" "http://www.w3.org/Graphics/SVG/1.1/DTD/svg11.dtd">
<svg version="1.1" xmlns="http://www.w3.org/2000/svg" xmlns:xlink="http://www.w3.org/1999/xlink" preserveAspectRatio="xMidYMid meet" viewBox="0 0 200 200" width="200" height="200"><defs><path d="M188.4 100.65C188.4 151.05 148.27 191.97 98.84 191.97C49.4 191.97 9.27 151.05 9.27 100.65C9.27 50.25 49.4 9.34 98.84 9.34C148.27 9.34 188.4 50.25 188.4 100.65Z" id="aLesib9uW"></path><path d="M98.84 4.65L14.7 52.65L14.7 148.65L98.84 196.65L182.98 148.65L182.98 52.65L98.84 4.65Z" id="abKc4O77T"></path><path  d="M112.6 18.05L112.75 18.07L112.9 18.1L113.04 18.14L113.18 18.18L113.31 18.23L113.44 18.3L113.57 18.36L113.69 18.44L113.81 18.52L113.92 18.61L114.03 18.7L114.14 18.81L114.25 18.91L114.35 19.03L114.45 19.15L114.55 19.28L114.64 19.41L114.73 19.54L114.82 19.69L114.91 19.84L114.99 19.99L115.07 20.15L115.15 20.31L115.23 20.48L115.31 20.65L115.38 20.82L115.46 21L115.53 21.19L115.6 21.37L115.67 21.56L115.74 21.76L115.81 21.96L115.88 22.16L115.94 22.36L116.01 22.56L116.08 22.77L116.14 22.98L116.21 23.2L119.6 36.6L120.66 36.95L123.01 37.83L125.32 38.8L127.58 39.86L129.8 41.02L129.98 41.12L141.4 34.15L141.59 34.05L141.78 33.95L141.97 33.85L142.15 33.75L142.34 33.66L142.52 33.57L142.7 33.48L142.88 33.4L143.05 33.31L143.23 33.23L143.4 33.16L143.58 33.09L143.75 33.02L143.92 32.95L144.09 32.89L144.25 32.84L144.42 32.79L144.58 32.74L144.74 32.7L144.9 32.67L145.05 32.64L145.21 32.62L145.36 32.6L145.51 32.59L145.66 32.58L145.81 32.58L145.95 32.59L146.1 32.61L146.24 32.63L146.37 32.66L146.51 32.7L146.65 32.74L146.78 32.8L146.91 32.86L147.03 32.93L147.16 33.01L147.28 33.1L147.4 33.2L147.52 33.3L147.64 33.42L164.26 50.94L164.37 51.07L164.48 51.19L164.57 51.32L164.65 51.45L164.73 51.59L164.8 51.73L164.86 51.87L164.92 52.01L164.97 52.15L165.01 52.3L165.04 52.45L165.06 52.61L165.08 52.76L165.1 52.92L165.1 53.08L165.1 53.24L165.1 53.4L165.08 53.57L165.06 53.74L165.04 53.9L165.01 54.07L164.98 54.25L164.93 54.42L164.89 54.59L164.84 54.77L164.78 54.95L164.72 55.13L164.66 55.31L164.59 55.49L164.51 55.67L164.43 55.85L164.35 56.03L164.27 56.22L164.18 56.4L164.08 56.59L163.99 56.77L163.89 56.96L163.78 57.14L163.68 57.33L163.57 57.52L156.97 69.54L157.1 69.8L158.2 72.14L159.21 74.52L160.13 76.95L160.96 79.43L161.29 80.55L174.01 84.13L174.21 84.18L174.41 84.23L174.61 84.29L174.8 84.34L174.99 84.4L175.18 84.46L175.37 84.53L175.55 84.59L175.73 84.66L175.91 84.73L176.09 84.8L176.26 84.88L176.42 84.96L176.59 85.04L176.74 85.12L176.9 85.21L177.05 85.3L177.19 85.39L177.33 85.49L177.47 85.59L177.6 85.69L177.72 85.79L177.84 85.9L177.96 86.01L178.07 86.12L178.17 86.24L178.27 86.36L178.36 86.49L178.44 86.61L178.52 86.74L178.59 86.88L178.65 87.02L178.71 87.16L178.76 87.3L178.8 87.45L178.84 87.61L178.87 87.76L178.89 87.92L178.9 88.09L178.9 88.26L178.9 113.04L178.9 113.21L178.89 113.38L178.87 113.53L178.84 113.69L178.8 113.84L178.76 113.98L178.71 114.12L178.65 114.26L178.59 114.39L178.52 114.52L178.44 114.65L178.36 114.77L178.27 114.88L178.17 115L178.07 115.11L177.96 115.22L177.84 115.32L177.72 115.42L177.6 115.52L177.47 115.62L177.33 115.71L177.19 115.8L177.05 115.89L176.9 115.98L176.74 116.06L176.59 116.15L176.42 116.23L176.26 116.31L176.09 116.38L175.91 116.46L175.73 116.53L175.55 116.61L175.37 116.68L175.18 116.75L174.99 116.83L174.8 116.9L174.61 116.97L174.41 117.04L174.21 117.11L174.01 117.17L161.29 120.75L160.96 121.87L160.13 124.35L159.21 126.78L158.2 129.17L157.1 131.5L156.98 131.74L163.57 143.74L163.68 143.92L163.78 144.11L163.89 144.29L163.99 144.48L164.08 144.67L164.18 144.85L164.27 145.03L164.35 145.22L164.43 145.4L164.51 145.58L164.59 145.77L164.66 145.95L164.72 146.13L164.78 146.3L164.84 146.48L164.89 146.66L164.93 146.83L164.98 147.01L165.01 147.18L165.04 147.35L165.06 147.52L165.08 147.68L165.1 147.85L165.1 148.01L165.1 148.18L165.1 148.33L165.08 148.49L165.06 148.65L165.04 148.8L165.01 148.95L164.97 149.1L164.92 149.24L164.86 149.39L164.8 149.53L164.73 149.67L164.65 149.8L164.57 149.93L164.48 150.06L164.37 150.19L164.26 150.31L147.64 167.83L147.52 167.95L147.4 168.06L147.28 168.15L147.16 168.24L147.03 168.32L146.91 168.39L146.78 168.45L146.65 168.51L146.51 168.55L146.37 168.59L146.24 168.62L146.1 168.65L145.95 168.66L145.81 168.67L145.66 168.67L145.51 168.67L145.36 168.65L145.21 168.64L145.05 168.61L144.9 168.58L144.74 168.55L144.58 168.51L144.42 168.46L144.25 168.41L144.09 168.36L143.92 168.3L143.75 168.24L143.58 168.17L143.4 168.1L143.23 168.02L143.05 167.94L142.88 167.86L142.7 167.77L142.52 167.68L142.34 167.59L142.15 167.5L141.97 167.4L141.78 167.31L141.59 167.21L141.4 167.1L130.02 160.16L129.8 160.29L127.58 161.44L125.32 162.5L123.01 163.48L120.66 164.36L119.6 164.7L116.21 178.11L116.14 178.32L116.08 178.53L116.01 178.74L115.94 178.94L115.88 179.15L115.81 179.35L115.74 179.54L115.67 179.74L115.6 179.93L115.53 180.12L115.46 180.3L115.38 180.48L115.31 180.65L115.23 180.83L115.15 180.99L115.07 181.16L114.99 181.31L114.91 181.47L114.82 181.61L114.73 181.76L114.64 181.89L114.55 182.03L114.45 182.15L114.35 182.27L114.25 182.39L114.14 182.5L114.03 182.6L113.92 182.69L113.81 182.78L113.69 182.86L113.57 182.94L113.44 183.01L113.31 183.07L113.18 183.12L113.04 183.17L112.9 183.2L112.75 183.23L112.6 183.25L112.45 183.27L112.29 183.27L88.78 183.27L88.62 183.27L88.46 183.25L88.31 183.23L88.16 183.2L88.01 183.17L87.87 183.12L87.73 183.07L87.6 183.01L87.47 182.94L87.34 182.86L87.22 182.78L87.1 182.69L86.98 182.6L86.86 182.5L86.75 182.39L86.64 182.27L86.54 182.15L86.44 182.03L86.34 181.89L86.24 181.76L86.15 181.61L86.06 181.47L85.97 181.31L85.89 181.16L85.8 180.99L85.72 180.83L85.65 180.65L85.57 180.48L85.5 180.3L85.43 180.12L85.36 179.93L85.3 179.74L85.24 179.54L85.18 179.35L85.12 179.15L85.06 178.94L85.01 178.74L84.96 178.53L84.91 178.32L84.86 178.11L81.47 164.7L80.41 164.36L78.06 163.48L75.75 162.5L73.49 161.44L71.27 160.29L71 160.13L59.66 167.06L59.49 167.17L59.31 167.28L59.13 167.39L58.96 167.5L58.78 167.6L58.61 167.7L58.43 167.79L58.26 167.88L58.08 167.97L57.91 168.05L57.74 168.13L57.57 168.2L57.4 168.27L57.23 168.33L57.06 168.39L56.89 168.45L56.73 168.49L56.56 168.54L56.4 168.57L56.24 168.61L56.08 168.63L55.92 168.65L55.76 168.66L55.61 168.67L55.45 168.67L55.3 168.66L55.15 168.65L55 168.63L54.86 168.6L54.72 168.57L54.58 168.53L54.44 168.48L54.3 168.42L54.17 168.35L54.04 168.28L53.91 168.2L53.79 168.11L53.66 168.01L53.55 167.9L53.43 167.79L36.8 150.26L36.69 150.14L36.59 150.01L36.5 149.89L36.42 149.76L36.34 149.62L36.27 149.49L36.22 149.35L36.16 149.21L36.12 149.07L36.09 148.93L36.06 148.78L36.04 148.63L36.02 148.48L36.01 148.33L36.01 148.18L36.02 148.02L36.03 147.86L36.04 147.7L36.07 147.53L36.09 147.37L36.13 147.2L36.16 147.03L36.21 146.86L36.25 146.69L36.31 146.51L36.36 146.34L36.42 146.16L36.49 145.98L36.56 145.8L36.63 145.61L36.7 145.43L36.78 145.24L36.86 145.05L36.95 144.86L37.03 144.67L37.12 144.48L37.21 144.28L37.31 144.08L37.4 143.89L37.5 143.69L44.07 131.71L43.96 131.5L42.87 129.17L41.86 126.78L40.94 124.35L40.1 121.87L39.77 120.75L27.06 117.17L26.86 117.11L26.66 117.04L26.46 116.97L26.27 116.9L26.07 116.83L25.88 116.75L25.7 116.68L25.51 116.61L25.33 116.53L25.15 116.46L24.98 116.38L24.81 116.31L24.64 116.23L24.48 116.15L24.32 116.06L24.17 115.98L24.02 115.89L23.87 115.8L23.73 115.71L23.6 115.62L23.47 115.52L23.34 115.42L23.22 115.32L23.11 115.22L23 115.11L22.9 115L22.8 114.88L22.71 114.77L22.63 114.65L22.55 114.52L22.48 114.39L22.41 114.26L22.35 114.12L22.3 113.98L22.26 113.84L22.23 113.69L22.2 113.53L22.18 113.38L22.17 113.21L22.16 113.04L22.16 88.26L22.17 88.09L22.18 87.92L22.2 87.76L22.23 87.61L22.26 87.45L22.3 87.3L22.35 87.16L22.41 87.02L22.48 86.88L22.55 86.74L22.63 86.61L22.71 86.49L22.8 86.36L22.9 86.24L23 86.12L23.11 86.01L23.22 85.9L23.34 85.79L23.47 85.69L23.6 85.59L23.73 85.49L23.87 85.39L24.02 85.3L24.17 85.21L24.32 85.12L24.48 85.04L24.64 84.96L24.81 84.88L24.98 84.8L25.15 84.73L25.33 84.66L25.51 84.59L25.7 84.53L25.88 84.46L26.07 84.4L26.27 84.34L26.46 84.29L26.66 84.23L26.86 84.18L27.06 84.13L39.77 80.55L40.1 79.43L40.94 76.95L41.86 74.52L42.87 72.14L43.96 69.8L44.09 69.57L37.5 57.57L37.4 57.37L37.31 57.17L37.21 56.97L37.12 56.78L37.03 56.58L36.95 56.39L36.86 56.2L36.78 56.01L36.7 55.82L36.63 55.64L36.56 55.46L36.49 55.27L36.42 55.09L36.36 54.91L36.31 54.74L36.25 54.56L36.21 54.39L36.16 54.22L36.13 54.05L36.09 53.88L36.07 53.72L36.04 53.55L36.03 53.39L36.02 53.23L36.01 53.08L36.01 52.92L36.02 52.77L36.04 52.62L36.06 52.47L36.09 52.33L36.12 52.18L36.16 52.04L36.22 51.9L36.27 51.76L36.34 51.63L36.42 51.5L36.5 51.37L36.59 51.24L36.69 51.12L36.8 50.99L53.43 33.47L53.55 33.35L53.66 33.24L53.79 33.14L53.91 33.05L54.04 32.97L54.17 32.9L54.3 32.83L54.44 32.78L54.58 32.73L54.72 32.68L54.86 32.65L55 32.62L55.15 32.6L55.3 32.59L55.45 32.58L55.61 32.58L55.76 32.59L55.92 32.6L56.08 32.62L56.24 32.65L56.4 32.68L56.56 32.72L56.73 32.76L56.89 32.81L57.06 32.86L57.23 32.92L57.4 32.98L57.57 33.05L57.74 33.13L57.91 33.2L58.08 33.29L58.26 33.37L58.43 33.46L58.61 33.56L58.78 33.66L58.96 33.76L59.13 33.86L59.31 33.97L59.49 34.08L59.66 34.2L71.05 41.15L71.27 41.02L73.49 39.86L75.75 38.8L78.06 37.83L80.41 36.95L81.47 36.6L84.86 23.2L84.91 22.98L84.96 22.77L85.01 22.56L85.06 22.36L85.12 22.16L85.18 21.96L85.24 21.76L85.3 21.56L85.36 21.37L85.43 21.19L85.5 21L85.57 20.82L85.65 20.65L85.72 20.48L85.8 20.31L85.89 20.15L85.97 19.99L86.06 19.84L86.15 19.69L86.24 19.54L86.34 19.41L86.44 19.28L86.54 19.15L86.64 19.03L86.75 18.91L86.86 18.81L86.98 18.7L87.1 18.61L87.22 18.52L87.34 18.44L87.47 18.36L87.6 18.3L87.73 18.23L87.87 18.18L88.01 18.14L88.16 18.1L88.31 18.07L88.46 18.05L88.62 18.04L88.78 18.03L112.29 18.03L112.45 18.04L112.6 18.05ZM97.72 64.62L96.34 64.77L94.97 64.98L93.62 65.24L92.29 65.56L90.98 65.93L89.7 66.35L88.43 66.82L87.19 67.35L85.97 67.92L84.78 68.54L83.61 69.21L82.47 69.92L81.36 70.68L80.28 71.48L79.24 72.32L78.22 73.21L77.24 74.13L76.29 75.09L75.38 76.09L74.5 77.13L73.66 78.2L72.86 79.3L72.1 80.44L71.38 81.61L70.71 82.81L70.07 84.04L69.48 85.3L68.94 86.58L68.44 87.89L67.99 89.23L67.59 90.58L67.24 91.96L66.94 93.37L66.69 94.79L66.5 96.23L66.36 97.69L66.27 99.16L66.25 100.65L66.27 102.14L66.36 103.62L66.5 105.07L66.69 106.51L66.94 107.94L67.24 109.34L67.59 110.72L67.99 112.08L68.44 113.41L68.94 114.72L69.48 116L70.07 117.26L70.71 118.49L71.38 119.69L72.1 120.86L72.86 122L73.66 123.1L74.5 124.17L75.38 125.21L76.29 126.21L77.24 127.17L78.22 128.1L79.24 128.98L80.28 129.82L81.36 130.62L82.47 131.38L83.61 132.09L84.78 132.76L85.97 133.38L87.19 133.96L88.43 134.48L89.7 134.95L90.98 135.38L92.29 135.75L93.62 136.06L94.97 136.32L96.34 136.53L97.72 136.68L99.12 136.77L100.53 136.8L101.95 136.77L103.35 136.68L104.73 136.53L106.09 136.32L107.44 136.06L108.77 135.75L110.08 135.38L111.37 134.95L112.64 134.48L113.88 133.96L115.1 133.38L116.29 132.76L117.46 132.09L118.59 131.38L119.7 130.62L120.78 129.82L121.83 128.98L122.85 128.1L123.83 127.17L124.78 126.21L125.69 125.21L126.57 124.17L127.41 123.1L128.21 122L128.96 120.86L129.68 119.69L130.36 118.49L130.99 117.26L131.58 116L132.13 114.72L132.62 113.41L133.07 112.08L133.47 110.72L133.82 109.34L134.12 107.94L134.37 106.51L134.57 105.07L134.71 103.62L134.79 102.14L134.82 100.65L134.79 99.16L134.71 97.69L134.57 96.23L134.37 94.79L134.12 93.37L133.82 91.96L133.47 90.58L133.07 89.23L132.62 87.89L132.13 86.58L131.58 85.3L130.99 84.04L130.36 82.81L129.68 81.61L128.96 80.44L128.21 79.3L127.41 78.2L126.57 77.13L125.69 76.09L124.78 75.09L123.83 74.13L122.85 73.21L121.83 72.32L120.78 71.48L119.7 70.68L118.59 69.92L117.46 69.21L116.29 68.54L115.1 67.92L113.88 67.35L112.64 66.82L111.37 66.35L110.08 65.93L108.77 65.56L107.44 65.24L106.09 64.98L104.73 64.77L103.35 64.62L101.95 64.54L100.53 64.51L99.12 64.54L97.72 64.62Z" id="aa2b9jyyY"></path><path d="M101.75 113.63L101.76 113.64L91.69 123.06L73.05 105.6L83.12 96.18L91.69 104.21L117.27 80.25L127.34 89.67L101.75 113.63Z" id="a3fcqnnVb"></path></defs><g><g><g><use xlink:href="#aLesib9uW" opacity="1" fill="#1f6378" fill-opacity="1"></use></g><g><use xlink:href="#abKc4O77T" opacity="1" fill="#26cded" fill-opacity="1"></use></g><g><use xlink:href="#aa2b9jyyY" opacity="1" fill="#b6f0fb" fill-opacity="1"></use></g><g><use xlink:href="#a3fcqnnVb" opacity="1" fill="#1f4478" fill-opacity="1"></use></g></g></g></svg>